name D:\PhD\Datasets\SharingData_IBEC_VALDUCE\DC_Healthy_0001.mot
datacolumns 46
datarows 5
range 7.51000000 7.55000000
endheader
                time	         pelvis_tilt	     pelvis_rotation	           pelvis_tx	           pelvis_ty	           pelvis_tz	       hip_flexion_r	     hip_adduction_r	      hip_rotation_r	        knee_angle_r	       ankle_angle_r	    subtalar_angle_r	         mtp_angle_r	       hip_flexion_l	     hip_adduction_l	      hip_rotation_l	        knee_angle_l	       ankle_angle_l	    subtalar_angle_l	         mtp_angle_l	    lumbar_extension	      lumbar_bending	     lumbar_rotation	          arm_flex_r	           arm_add_r	           arm_rot_r	        elbow_flex_r	           pro_sup_r	        wrist_flex_r	         wrist_dev_r	          arm_flex_l	           arm_add_l	           arm_rot_l	        elbow_flex_l	           pro_sup_l	        wrist_flex_l	         wrist_dev_l	          end_eff_tx	          end_eff_ty	          end_eff_tz	             goal_tx	             goal_ty	             goal_tz	            elbow_tx	            elbow_ty	            elbow_tz	
          7.51000000	          0.00000000	          0.00000000	        437.72254116	        447.41074585	        294.86786052	          0.00000000	          0.00000000	          0.00000000	          0.00000000	          0.00000000	          0.00000000	          0.00000000	          0.00000000	          0.00000000	          0.00000000	          0.00000000	          0.00000000	          0.00000000	          0.00000000	        -12.58564186	         -2.51932359	         13.40271950	         56.99850464	        -15.35689831	         43.22068405	         41.62772751	         81.58318329	          0.00000000	          0.00000000	          0.00000000	          0.00000000	          0.00000000	          0.00000000	          0.00000000	          0.00000000	          0.00000000	        967.54135391	        300.28315050	        180.05665067	        938.04260737	        392.62523535	        184.66994298	        699.54000851	        344.04712141	        484.93646176	
          7.52000000	          0.00000000	          0.00000000	        436.93108272	        447.80862950	        295.01316091	          0.00000000	          0.00000000	          0.00000000	          0.00000000	          0.00000000	          0.00000000	          0.00000000	          0.00000000	          0.00000000	          0.00000000	          0.00000000	          0.00000000	          0.00000000	          0.00000000	        -12.50086498	         -2.51444936	         13.37377930	         56.89485168	        -15.42105484	         43.31448746	         41.76091385	         81.75426483	          0.00000000	          0.00000000	          0.00000000	          0.00000000	          0.00000000	          0.00000000	          0.00000000	          0.00000000	          0.00000000	        965.38739587	        300.28303120	        180.23391164	        935.51746384	        392.05870976	        185.15160060	        697.82413598	        344.01527370	        485.50838821	
          7.53000000	          0.00000000	          0.00000000	        436.20402739	        448.22632881	        295.19894215	          0.00000000	          0.00000000	          0.00000000	          0.00000000	          0.00000000	          0.00000000	          0.00000000	          0.00000000	          0.00000000	          0.00000000	          0.00000000	          0.00000000	          0.00000000	          0.00000000	        -12.34489727	         -2.48943186	         13.36764812	         56.57950592	        -15.43976402	         43.27593231	         41.89934921	         81.97768402	          0.00000000	          0.00000000	          0.00000000	          0.00000000	          0.00000000	          0.00000000	          0.00000000	          0.00000000	          0.00000000	        963.27178000	        300.24166503	        180.52600170	        933.84391804	        392.52757583	        185.44486636	        696.19478708	        344.17866319	        486.17854825	
          7.54000000	          0.00000000	          0.00000000	        435.44185682	        448.60960892	        295.40148939	          0.00000000	          0.00000000	          0.00000000	          0.00000000	          0.00000000	          0.00000000	          0.00000000	          0.00000000	          0.00000000	          0.00000000	          0.00000000	          0.00000000	          0.00000000	          0.00000000	        -12.18327236	         -2.46572137	         13.33017921	         56.29169464	        -15.40886593	         43.27092743	         42.01973724	         82.08444214	          0.00000000	          0.00000000	          0.00000000	          0.00000000	          0.00000000	          0.00000000	          0.00000000	          0.00000000	          0.00000000	        961.09385752	        300.20808390	        180.89809090	        931.35110012	        392.20016460	        186.12390912	        694.64390492	        344.05087431	        486.70579580	
          7.55000000	          0.00000000	          0.00000000	        434.67733081	        449.01892362	        295.59383050	          0.00000000	          0.00000000	          0.00000000	          0.00000000	          0.00000000	          0.00000000	          0.00000000	          0.00000000	          0.00000000	          0.00000000	          0.00000000	          0.00000000	          0.00000000	          0.00000000	        -12.08492279	         -2.45497417	         13.27331352	         56.12850952	        -15.47070503	         43.36477280	         42.18255615	         82.05826569	          0.00000000	          0.00000000	          0.00000000	          0.00000000	          0.00000000	          0.00000000	          0.00000000	          0.00000000	          0.00000000	        959.03666578	        300.02577651	        181.36743908	        929.69922861	        392.61176942	        186.51198467	        692.83826462	        344.36602542	        487.74491411	
